<svg id="Layer_1" data-name="Layer 1" xmlns="http://www.w3.org/2000/svg" viewBox="0 0 500 500"><defs><style>.cls-1{fill:#fff;}</style></defs><path d="M278,498H223C101.5,498,3,399.5,3,278V74.5A71.5,71.5,0,0,1,74.5,3h352A71.5,71.5,0,0,1,498,74.5V278C498,399.5,399.5,498,278,498Z"/><path class="cls-1" d="M409.43,32.5A59.14,59.14,0,0,1,468.5,91.57V275.33A193,193,0,0,1,275.33,468.5H225.67A193,193,0,0,1,32.5,275.33V91.57A59.14,59.14,0,0,1,91.57,32.5H409.43m0-5.5H91.57A64.57,64.57,0,0,0,27,91.57V275.33C27,385.05,116,474,225.67,474h49.66C385.05,474,474,385.05,474,275.33V91.57A64.57,64.57,0,0,0,409.43,27Z"/><path class="cls-1" d="M228,256.89V3H404V256.89a16.49,16.49,0,0,1-27.3,12.45l-57.1-49.56a5.5,5.5,0,0,0-7.2,0l-57.1,49.56A16.49,16.49,0,0,1,228,256.89Z"/></svg>