<svg id="Layer_1" data-name="Layer 1" xmlns="http://www.w3.org/2000/svg" viewBox="0 0 500 500"><defs><style>.cls-1{fill:#096;}.cls-2{fill:#fff;}.cls-3{fill:#ffcc29;}</style></defs><path class="cls-1" d="M277.5,497.5h-55c-121.5,0-220-98.5-220-220V74A71.5,71.5,0,0,1,74,2.5H426A71.5,71.5,0,0,1,497.5,74V277.5C497.5,399,399,497.5,277.5,497.5Z"/><path class="cls-2" d="M408.93,32A59.14,59.14,0,0,1,468,91.07V274.83A193,193,0,0,1,274.83,468H225.17A193,193,0,0,1,32,274.83V91.07A59.14,59.14,0,0,1,91.07,32H408.93m0-5.5H91.07A64.57,64.57,0,0,0,26.5,91.07V274.83c0,109.72,89,198.67,198.67,198.67h49.66c109.72,0,198.67-88.95,198.67-198.67V91.07A64.57,64.57,0,0,0,408.93,26.5Z"/><path class="cls-3" d="M227.5,256.39V2.5h176V256.39a16.49,16.49,0,0,1-27.3,12.45l-57.1-49.56a5.5,5.5,0,0,0-7.2,0l-57.1,49.56A16.49,16.49,0,0,1,227.5,256.39Z"/></svg>